# xmcd
#
# Track frame offsets:
# 150
# 11540
# 22643
# 39689
# 63629
# 84150
# 101068
# 121446
# 142842
#
# Disc length: 2256 seconds
#
#
# Revision: 0
# Processed by: cddbd v1.5.1PL0 Copyright (c) Steve Scherf et al.
# Submitted via: FreeRIP 2.92 
#
DISCID=6708ce09
DTITLE=Mahatma - the Endless Struggle Against Time
DYEAR=2005
DGENRE=Thrash Metal
TTITLE0=the Endless Struggle Against Time
TTITLE1=Into the Death
TTITLE2=the Last Road To Hell
TTITLE3=Condemned Fury
TTITLE4=Lock In
TTITLE5=Nothing To Take
TTITLE6=My Trap
TTITLE7=Necrosis
TTITLE8=Monolith
EXTD=
EXTT0=
EXTT1=
EXTT2=
EXTT3=
EXTT4=
EXTT5=
EXTT6=
EXTT7=
EXTT8=
PLAYORDER=
